<svg xmlns="http://www.w3.org/2000/svg" width="29.527" height="53.635" viewBox="0 0 29.527 53.635">
  <g id="Group_1989" data-name="Group 1989" transform="translate(-901.501 -1197.044)">
    <path id="Path_928" data-name="Path 928" d="M915.711,1250.649a3.876,3.876,0,0,0,3.988-2.16h-6.8A3.617,3.617,0,0,0,915.711,1250.649Z" fill="#5b5e5e"/>
    <path id="Path_929" data-name="Path 929" d="M916.265,1197.044a14.764,14.764,0,0,0-14.764,14.764c0,.141.017.278.021.419,0,.062.007.124.009.186.008.344.034.688.066,1.032a14.831,14.831,0,0,0,1.276,4.82c.918,2.007,1.927,3.971,2.874,5.965a31.27,31.27,0,0,1,2.317,6.457c.327,1.438.533,2.905.895,4.333a3.013,3.013,0,0,0,2.87,2.247c1.6.035,3.193.008,4.789.007,1.429,0,2.857.006,4.285-.006a2.312,2.312,0,0,0,2.413-1.618,10.987,10.987,0,0,0,.459-1.6,40.816,40.816,0,0,1,1.722-6.966,73.53,73.53,0,0,1,3.573-7.584,17.429,17.429,0,0,0,1.838-5.9c.014-.13.038-.258.049-.389.006-.066.005-.134.01-.2.033-.4.061-.8.061-1.21A14.764,14.764,0,0,0,916.265,1197.044Zm.064,26.544a12.183,12.183,0,1,1,12.122-12.2A12.191,12.191,0,0,1,916.329,1223.588Z" fill="#5b5e5e"/>
    <rect id="Rectangle_731" data-name="Rectangle 731" width="12.214" height="2.23" rx="0.911" transform="translate(910.048 1245.437)" fill="#5b5e5e"/>
    <rect id="Rectangle_732" data-name="Rectangle 732" width="12.214" height="2.23" rx="0.911" transform="translate(910.048 1241.827)" fill="#5b5e5e"/>
    <rect id="Rectangle_733" data-name="Rectangle 733" width="12.214" height="2.23" rx="0.911" transform="translate(910.048 1238.217)" fill="#5b5e5e"/>
    <g id="Group_1988" data-name="Group 1988">
      <path id="Path_930" data-name="Path 930" d="M911.01,1208.239a6.528,6.528,0,0,1,2.243-3.827,6.675,6.675,0,0,1,4.235-1.291,8.317,8.317,0,0,1,1.744.158,10.463,10.463,0,0,1,1.449.431l-.7,2.627a10.845,10.845,0,0,0-1.109-.306,6.68,6.68,0,0,0-1.4-.125,3.38,3.38,0,0,0-2.117.589,3.3,3.3,0,0,0-1.1,1.744h5.027l-.43,2.242h-4.892c-.015.166-.023.306-.023.419v.668c0,.091.008.219.023.385h4.62l-.43,2.242h-3.9a3.276,3.276,0,0,0,1.155,1.892,3.31,3.31,0,0,0,1.925.532,8.776,8.776,0,0,0,1.517-.136,7.429,7.429,0,0,0,1.54-.453l.657,2.6a7.245,7.245,0,0,1-1.575.554,9.429,9.429,0,0,1-2.253.238,6.184,6.184,0,0,1-4.326-1.37,6.778,6.778,0,0,1-1.969-3.862H909.29v-2.242h1.426c-.015-.166-.022-.294-.022-.385v-.7a3.141,3.141,0,0,1,.022-.385H909.29v-2.242Z" fill="#5b5e5e"/>
    </g>
  </g>
</svg>
