<svg xmlns="http://www.w3.org/2000/svg" width="17.541" height="17.54" viewBox="0 0 17.541 17.54">
  <g id="icon" transform="translate(-474.905 -885.504)">
    <g id="Group_2049" data-name="Group 2049">
      <path id="Path_989" data-name="Path 989" d="M491.915,888.048l-2.014-2.014a1.816,1.816,0,0,0-2.565,0l-1.662,1.662,4.579,4.579,1.662-1.662a1.814,1.814,0,0,0,0-2.565Z" fill="#5b5e5e"/>
    </g>
    <g id="Group_2050" data-name="Group 2050">
      <path id="Path_990" data-name="Path 990" d="M479.694,893.886l-.543,4.106a.717.717,0,0,0,.712.812.748.748,0,0,0,.094-.006l4.106-.543a.718.718,0,0,0,.414-.2l4.76-4.76-4.579-4.579-4.76,4.76A.713.713,0,0,0,479.694,893.886Z" fill="#5b5e5e"/>
    </g>
    <g id="Group_2051" data-name="Group 2051">
      <path id="Path_991" data-name="Path 991" d="M490.833,896.16a.718.718,0,0,0-.718.718v3.256a1.475,1.475,0,0,1-1.473,1.474H477.815a1.475,1.475,0,0,1-1.474-1.474V889.308a1.475,1.475,0,0,1,1.474-1.474h3.256a.718.718,0,1,0,0-1.436h-3.256a2.913,2.913,0,0,0-2.91,2.91v10.826a2.913,2.913,0,0,0,2.91,2.91h10.827a2.913,2.913,0,0,0,2.909-2.91v-3.256A.717.717,0,0,0,490.833,896.16Z" fill="#5b5e5e"/>
    </g>
  </g>
</svg>
