<svg xmlns="http://www.w3.org/2000/svg" width="19.037" height="53.635" viewBox="0 0 19.037 53.635">
  <path id="Path_927" data-name="Path 927" d="M795.554,1241.2v-.379a.1.1,0,0,0-.1-.1h-3.506a.1.1,0,0,1-.1-.1v-.4a.351.351,0,0,0-.036-.149,3.08,3.08,0,0,1-.228-.972v-40.061a2.077,2.077,0,0,1,.257-.945v-.686a.272.272,0,0,0-.048-.156.655.655,0,0,0-.237-.207h-10.9a.654.654,0,0,0-.237.207.272.272,0,0,0-.048.156v.686a2.076,2.076,0,0,1,.257.945V1239.1a3.08,3.08,0,0,1-.228.972.351.351,0,0,0-.036.149v.4a.1.1,0,0,1-.1.1h-3.506a.1.1,0,0,0-.1.1v.379h-.076v.232a.067.067,0,0,0,.067.067H778.3a.149.149,0,0,1,.113.048.389.389,0,0,1,.075.12.32.32,0,0,1,.02.115v8.209a.7.7,0,0,0,.055.275.61.61,0,0,0,.522.416h14.049a.61.61,0,0,0,.522-.416.7.7,0,0,0,.055-.275v-8.209a.321.321,0,0,1,.02-.115.389.389,0,0,1,.075-.12.149.149,0,0,1,.113-.048h1.642a.067.067,0,0,0,.067-.067v-.232Zm-12.005-2.926a.953.953,0,0,1-.007.12c-.089.744-.348,1.192-.8,1.305a.394.394,0,0,1-.256-.018c-.308-.132-.506-.55-.548-1.372v-38.373a1.888,1.888,0,0,1,.317-1.18.56.56,0,0,1,.668-.142c.415.194.593.672.626,1.322Zm2.562,10.314a.741.741,0,1,1,.741-.741A.74.74,0,0,1,786.111,1248.585Zm4.275-10.279c-.043.822-.241,1.24-.548,1.372a.4.4,0,0,1-.256.018c-.452-.113-.712-.561-.8-1.305a1.181,1.181,0,0,1-.006-.12v-38.338c.032-.65.21-1.128.626-1.322a.559.559,0,0,1,.667.142,1.887,1.887,0,0,1,.318,1.18Z" transform="translate(-776.593 -1197.044)" fill="#5b5e5e"/>
</svg>
