<svg xmlns="http://www.w3.org/2000/svg" width="28.088" height="30.662" viewBox="0 0 28.088 30.662">
  <g id="Group_2067" data-name="Group 2067" transform="translate(-24.211 -748.85)">
    <path id="Path_1007" data-name="Path 1007" d="M37.374,764.382l-11.2-6.467a1.307,1.307,0,0,0-1.961,1.132v11.636a3.077,3.077,0,0,0,1.537,2.663l10.127,5.961a1.306,1.306,0,0,0,1.969-1.126V765.2A.939.939,0,0,0,37.374,764.382Z" fill="#9f9fa0"/>
    <path id="Path_1008" data-name="Path 1008" d="M51.33,757.479,39.136,764.52a.937.937,0,0,0-.47.813V778.2a1.307,1.307,0,0,0,1.96,1.132l9.845-5.684a3.656,3.656,0,0,0,1.828-3.167V758.039A.646.646,0,0,0,51.33,757.479Z" fill="#5b5e5e"/>
    <path id="Path_1009" data-name="Path 1009" d="M49.216,754.762l-9.613-5.55a2.694,2.694,0,0,0-2.7,0L25.68,755.694a.708.708,0,0,0,0,1.225l12.105,7.048a.937.937,0,0,0,.944,0l12.562-7.313a.4.4,0,0,0,0-.7Z" fill="#a13048"/>
    <path id="Path_1010" data-name="Path 1010" d="M37.505,761.67a1.721,1.721,0,0,1-.532-.409.779.779,0,0,1-.182-.509l-.01-7.894-7.479,4.2-2.051-1.088,9.777-5.5a1.857,1.857,0,0,1,1.06-.238,2.7,2.7,0,0,1,1.09.317,2.3,2.3,0,0,1,.31.193.969.969,0,0,1,.207.2.584.584,0,0,1,.13.372l-.163,8.054,7.6-4.273,2.094,1.111-9.778,5.5a1.857,1.857,0,0,1-1.053.259A2.541,2.541,0,0,1,37.505,761.67Z" fill="#fff"/>
    <path id="Path_1011" data-name="Path 1011" d="M40.183,777.894v-2.26l7.48-4.487a2.848,2.848,0,0,0,.852-.713,1.611,1.611,0,0,0,.26-.97v-.649c0-.373-.086-.587-.26-.641s-.452.035-.837.266l-4.693,2.815a5.572,5.572,0,0,1-1.365.635,1.121,1.121,0,0,1-.859-.045,1.028,1.028,0,0,1-.441-.682A5.463,5.463,0,0,1,40.2,769.9v-.6a7.873,7.873,0,0,1,.159-1.655,4.721,4.721,0,0,1,.491-1.337,4.618,4.618,0,0,1,.866-1.1,7.385,7.385,0,0,1,1.271-.946l7.8-4.678V761.1a1.316,1.316,0,0,1-.638,1.128L43.187,766.4a2.171,2.171,0,0,0-.744.683,2.077,2.077,0,0,0-.238,1.1v.385q0,.561.217.667t.75-.214l4.607-2.763a6.675,6.675,0,0,1,1.393-.669,1.375,1.375,0,0,1,.932-.025.962.962,0,0,1,.52.635,4.274,4.274,0,0,1,.158,1.289v.946a6.787,6.787,0,0,1-.158,1.523,4.233,4.233,0,0,1-.52,1.267,5.153,5.153,0,0,1-.932,1.1,8.8,8.8,0,0,1-1.393,1.011Z" fill="#fff"/>
    <path id="Path_1012" data-name="Path 1012" d="M36.005,767.893a5.059,5.059,0,0,0-.541-1.568,5.146,5.146,0,0,0-1.045-1.3,9.837,9.837,0,0,0-1.659-1.191l-7.226-4.244-.023,2.3,2.056,1.2.163.094,4.928,2.872a4.371,4.371,0,0,1,.737.524,2.288,2.288,0,0,1,.463.582,2.256,2.256,0,0,1,.243.731,5.5,5.5,0,0,1,.064.946l-.035,3.479a3.419,3.419,0,0,1-.094.865.681.681,0,0,1-.275.424.6.6,0,0,1-.476.033,3.118,3.118,0,0,1-.7-.309l-5.092-2.89.049-4.935-2.056-1.188-.073,7.236,7.229,4.068a6.779,6.779,0,0,0,1.665.72,1.349,1.349,0,0,0,1.059-.1,1.452,1.452,0,0,0,.565-.923,7.8,7.8,0,0,0,.181-1.786l.036-3.671A10.514,10.514,0,0,0,36.005,767.893Z" fill="#fff"/>
  </g>
</svg>
