<svg xmlns="http://www.w3.org/2000/svg" width="10.378" height="10.383" viewBox="0 0 10.378 10.383">
  <path id="Path_484" data-name="Path 484" d="M31.339,5222.568a4.271,4.271,0,0,1,1.495.618,3,3,0,0,1,.785-.6l.519.525.52.52a2.768,2.768,0,0,1-.6.785,4.344,4.344,0,0,1,.624,1.5,2.658,2.658,0,0,1,.969.132v1.472a2.68,2.68,0,0,1-.969.133,4.348,4.348,0,0,1-.624,1.5,2.757,2.757,0,0,1,.6.785l-.52.519-.519.526a2.992,2.992,0,0,1-.785-.6,4.242,4.242,0,0,1-1.495.618,2.982,2.982,0,0,1-.133.975H29.729A2.982,2.982,0,0,1,29.6,5231a4.28,4.28,0,0,1-1.5-.618,2.961,2.961,0,0,1-.779.6l-.526-.526-.519-.519a2.962,2.962,0,0,1,.595-.785,4.224,4.224,0,0,1-.618-1.5,2.7,2.7,0,0,1-.976-.133v-1.472a2.681,2.681,0,0,1,.976-.132,4.22,4.22,0,0,1,.618-1.5,2.883,2.883,0,0,1-.595-.785l.519-.52.526-.525a2.971,2.971,0,0,1,.779.6,4.271,4.271,0,0,1,1.5-.618,3.005,3.005,0,0,1,.133-.975h1.477a3.005,3.005,0,0,1,.133.975Zm-.872,1.351a2.868,2.868,0,1,1-2.868,2.868,2.865,2.865,0,0,1,2.868-2.868Z" transform="translate(-25.278 -5221.593)" fill="#5b5e5e" fill-rule="evenodd"/>
</svg>
